<svg width="14" height="16" viewBox="0 0 14 16" fill="none" xmlns="http://www.w3.org/2000/svg">
<g clip-path="url(#clip0_229_1526)">
<path d="M10.3753 5.76119C11.3968 6.49746 12.6481 6.93068 13.9996 6.93068V4.30833C13.7438 4.30843 13.4887 4.28151 13.2385 4.228V6.29217C11.8871 6.29217 10.6359 5.85901 9.61421 5.12279V10.4743C9.61421 13.1514 7.46193 15.3215 4.80718 15.3215C3.81663 15.3215 2.89591 15.0195 2.1311 14.5016C3.00403 15.4016 4.22137 15.9599 5.5681 15.9599C8.22307 15.9599 10.3754 13.7899 10.3754 11.1126V5.76119H10.3753ZM11.3143 3.11556C10.7922 2.5405 10.4495 1.79732 10.3753 0.975697V0.638428H9.65403C9.83559 1.68268 10.4549 2.57481 11.3143 3.11556ZM3.81023 12.4473C3.51855 12.0618 3.36089 11.59 3.36163 11.105C3.36163 9.88058 4.34606 8.88781 5.56061 8.88781C5.78692 8.88768 6.0119 8.92272 6.22763 8.9917V6.3107C5.97553 6.27589 5.72112 6.26105 5.46682 6.26651V8.35324C5.25098 8.28425 5.02589 8.24923 4.79947 8.24941C3.58497 8.24941 2.6006 9.24207 2.6006 10.4666C2.6006 11.3325 3.09262 12.0821 3.81023 12.4473Z" fill="#FF004F"/>
<path d="M9.61422 5.12273C10.6359 5.85895 11.887 6.29211 13.2385 6.29211V4.22794C12.4841 4.0659 11.8163 3.66844 11.3142 3.11556C10.4548 2.57476 9.83559 1.68262 9.65403 0.638428H7.75949V11.1125C7.75517 12.3336 6.77244 13.3223 5.56051 13.3223C4.8464 13.3223 4.21191 12.9791 3.81012 12.4473C3.09262 12.0821 2.60055 11.3324 2.60055 10.4667C2.60055 9.24223 3.58492 8.24946 4.79942 8.24946C5.03212 8.24946 5.25639 8.28599 5.46677 8.3533V6.26657C2.85862 6.32091 0.761078 8.46976 0.761078 11.1126C0.761078 12.4319 1.2834 13.6278 2.13116 14.5017C2.89597 15.0195 3.81663 15.3216 4.80724 15.3216C7.46205 15.3216 9.61427 13.1514 9.61427 10.4743L9.61422 5.12273Z" fill="black"/>
<path d="M13.2385 4.22786V3.66985C12.5582 3.67084 11.8914 3.47875 11.3142 3.11553C11.8251 3.67951 12.4979 4.06843 13.2385 4.22797M9.65398 0.638345C9.63669 0.53857 9.62341 0.438129 9.61417 0.337269V0H6.99825V10.4742C6.99409 11.6952 6.01136 12.6839 4.79937 12.6839C4.45579 12.6844 4.1169 12.6034 3.81008 12.4473C4.21187 12.979 4.84635 13.3222 5.56046 13.3222C6.77234 13.3222 7.75518 12.3336 7.75944 11.1126V0.6384L9.65398 0.638345ZM5.46689 6.26648V5.67233C5.2483 5.64222 5.02793 5.62714 4.8073 5.6272C2.15223 5.6272 0 7.79735 0 10.4742C0 12.1525 0.845852 13.6316 2.13123 14.5016C1.28346 13.6278 0.761141 12.4317 0.761141 11.1125C0.761141 8.46974 2.85862 6.32083 5.46689 6.26648Z" fill="#00F2EA"/>
</g>
<defs>
<clipPath id="clip0_229_1526">
<rect width="14" height="16" fill="white"/>
</clipPath>
</defs>
</svg>
