<svg width="24" height="24" viewBox="0 0 24 24" fill="none" xmlns="http://www.w3.org/2000/svg">
<path d="M12 3C7.02823 3 3 7.02823 3 12C3 16.9718 7.02823 21 12 21C16.9718 21 21 16.9718 21 12C21 7.02823 16.9718 3 12 3ZM16.3911 14.3952C16.5726 14.5403 16.5726 14.8306 16.3911 15.0121L14.9758 16.4274C14.7944 16.6089 14.504 16.6089 14.3589 16.4274L12 14.0323L9.60484 16.4274C9.45968 16.6089 9.16935 16.6089 8.9879 16.4274L7.57258 14.9758C7.39113 14.8306 7.39113 14.5403 7.57258 14.3589L9.96774 12L7.57258 9.64113C7.39113 9.49597 7.39113 9.20565 7.57258 9.02419L9.02419 7.60887C9.16935 7.42742 9.45968 7.42742 9.64113 7.60887L12 9.96774L14.3589 7.60887C14.504 7.42742 14.7944 7.42742 14.9758 7.60887L16.3911 9.02419C16.5726 9.20565 16.5726 9.49597 16.3911 9.64113L14.0323 12L16.3911 14.3952Z" fill="#777C91"/>
</svg>
