<svg width="16" height="16" viewBox="0 0 16 16" fill="none" xmlns="http://www.w3.org/2000/svg">
<g clip-path="url(#clip0_212_1575)">
<path d="M14.5813 0.60376H1.42001C0.969207 0.60376 0.60376 0.969207 0.60376 1.42001V14.5813C0.60376 15.0321 0.969207 15.3975 1.42001 15.3975H14.5813C15.0321 15.3975 15.3975 15.0321 15.3975 14.5813V1.42001C15.3975 0.969207 15.0321 0.60376 14.5813 0.60376Z" fill="#3D5A98"/>
<path d="M10.81 15.3964V9.66761H12.7325L13.02 7.43511H10.81V6.01011C10.81 5.36386 10.99 4.92261 11.9163 4.92261H13.0988V2.92261C12.5261 2.86304 11.9507 2.83467 11.375 2.83761C9.67251 2.83761 8.50001 3.87511 8.50001 5.78886V7.43511H6.57751V9.66761H8.50001V15.3964H10.81Z" fill="white"/>
</g>
<defs>
<clipPath id="clip0_212_1575">
<rect width="16" height="16" fill="white"/>
</clipPath>
</defs>
</svg>
