<svg width="16" height="16" viewBox="0 0 16 16" fill="#ffffff" xmlns="http://www.w3.org/2000/svg">
<g clip-path="url(#clip0_212_1571)">
<path d="M15.4286 8.0001C15.4286 9.97028 14.6459 11.8598 13.2528 13.2529C11.8597 14.646 9.97019 15.4287 8.00001 15.4287C6.02983 15.4287 4.14035 14.646 2.74722 13.2529C1.35409 11.8598 0.571442 9.97028 0.571442 8.0001M15.4286 8.0001C15.4286 6.02992 14.6459 4.14044 13.2528 2.74731C11.8597 1.35418 9.97019 0.571533 8.00001 0.571533C6.02983 0.571533 4.14035 1.35418 2.74722 2.74731C1.35409 4.14044 0.571442 6.02992 0.571442 8.0001M15.4286 8.0001H0.571442" stroke="black" stroke-linecap="round" stroke-linejoin="round"/>
<path d="M10.8572 8.0001C10.7168 10.7167 9.71623 13.3182 8.00003 15.4287C6.28382 13.3182 5.28322 10.7167 5.14288 8.0001C5.28322 5.28354 6.28382 2.68199 8.00003 0.571533C9.71623 2.68199 10.7168 5.28354 10.8572 8.0001Z" stroke="black" stroke-linecap="round" stroke-linejoin="round"/>
</g>
<defs>
<clipPath id="clip0_212_1571">
<rect width="16" height="16" fill="#fff"/>
</clipPath>
</defs>
</svg>
