<svg width="16" height="16" viewBox="0 0 16 16" fill="none" xmlns="http://www.w3.org/2000/svg">
<path d="M4.20597 2.29306C3.65841 2.46962 3.22997 2.6635 2.70206 3.05087C2.63362 3.11622 2.56652 3.18296 2.50081 3.25106C2.50831 3.26875 2.51988 3.29059 2.53697 3.32137C2.56872 3.37862 2.62344 3.44709 2.69228 3.51481C2.58678 3.68416 2.48775 3.85745 2.39541 4.03431C2.28091 3.93931 2.17816 3.83359 2.0956 3.71494C1.85619 4.01339 1.64252 4.33161 1.45691 4.66619C1.46925 4.71731 1.50556 4.77306 1.57503 4.84775C1.65803 4.93691 1.78769 5.029 1.93835 5.10756C1.8751 5.29872 1.82085 5.48894 1.77628 5.67881C1.54378 5.57319 1.33113 5.43606 1.16397 5.26184C0.975518 5.70015 0.835054 6.15756 0.745034 6.62609C0.786752 6.70216 0.861096 6.77181 0.973534 6.84584C1.13203 6.95022 1.35978 7.03572 1.60735 7.08512C1.60594 7.28628 1.61516 7.48581 1.63272 7.68275C1.27625 7.63047 0.932565 7.51875 0.652252 7.33412C0.65069 7.33306 0.64894 7.33225 0.647377 7.33119C0.60735 7.80922 0.618802 8.29017 0.681534 8.76575C0.753721 8.8745 0.874534 8.95191 1.05456 9.01381C1.286 9.09337 1.60056 9.11831 1.92081 9.08606C1.98331 9.27737 2.05441 9.46512 2.13363 9.64856C1.69706 9.71412 1.25122 9.69925 0.865096 9.56653C0.854565 9.56291 0.844315 9.55866 0.833846 9.55481C0.957446 10.0354 1.13398 10.5008 1.36022 10.9425C1.47125 11.0301 1.62116 11.0742 1.82022 11.088C2.11085 11.1081 2.48097 11.0339 2.83391 10.8898C2.94963 11.0537 3.07213 11.2127 3.2011 11.3663C2.74578 11.5762 2.25235 11.6999 1.79288 11.671C2.10393 12.1279 2.4696 12.545 2.88175 12.9132C3.01488 12.9584 3.17238 12.959 3.36219 12.922C3.66219 12.8634 4.01391 12.6906 4.33188 12.4532C4.33213 12.4534 4.33269 12.4531 4.33288 12.4532C4.49353 12.5774 4.65936 12.6947 4.82994 12.8048C4.45569 13.1145 4.02916 13.3578 3.59463 13.4679C3.96175 13.7163 4.35266 13.9276 4.7616 14.0987C4.91588 14.1119 5.08316 14.0687 5.27235 13.9767C5.5121 13.8599 5.76547 13.6563 5.99203 13.4054C6.52441 13.6174 7.07741 13.756 7.63463 13.8087L7.69025 13.2267C7.24438 13.1845 6.797 13.0776 6.36019 12.9161C6.57528 12.569 6.723 12.1919 6.76456 11.8712C6.80138 11.5864 6.76716 11.3663 6.64638 11.2013C6.39388 11.1519 6.14981 11.0781 5.91591 10.9825C5.91053 11.1847 5.8626 11.3883 5.78403 11.5792C5.667 11.8637 5.48653 12.1354 5.26747 12.3829C5.09952 12.2796 4.93626 12.1688 4.77819 12.0509C4.98506 11.8265 5.15078 11.5831 5.244 11.3565C5.36294 11.0676 5.37441 10.8385 5.26353 10.6437C5.02141 10.4888 4.79469 10.3082 4.58485 10.1056C4.52944 10.24 4.454 10.3672 4.3651 10.4835C4.19397 10.7074 3.97222 10.9057 3.7225 11.0743C3.59375 10.9268 3.47088 10.7742 3.35531 10.6153C3.57881 10.4686 3.77082 10.2997 3.90125 10.129C4.05869 9.92294 4.12688 9.74119 4.10338 9.56356C3.94608 9.35599 3.80504 9.13659 3.6815 8.90731C3.61001 8.99142 3.5298 9.06771 3.44222 9.13491C3.23103 9.29662 2.97978 9.421 2.71078 9.51084C2.62969 9.33303 2.55588 9.15153 2.49203 8.96594C2.72413 8.89078 2.9336 8.78834 3.08672 8.67103C3.26472 8.53472 3.36178 8.404 3.3846 8.25697C3.2888 8.00342 3.21145 7.74329 3.15316 7.47859C3.0948 7.51221 3.0341 7.54158 2.97153 7.5665C2.73872 7.65859 2.47935 7.70506 2.21278 7.71494C2.1917 7.52064 2.18092 7.32537 2.1805 7.12994C2.39791 7.12172 2.60125 7.08503 2.75675 7.02353C2.9005 6.96666 2.9941 6.90478 3.04872 6.82822C3.01611 6.51879 3.00761 6.2073 3.02331 5.89656C3.003 5.89981 2.983 5.90219 2.96275 5.90437C2.75575 5.92703 2.53913 5.90906 2.32506 5.86241C2.36788 5.67553 2.421 5.48709 2.48425 5.29794C2.63644 5.32709 2.78231 5.33616 2.89925 5.32337C2.98094 5.31444 3.04088 5.29975 3.08675 5.27944C3.12968 5.00421 3.19202 4.73237 3.27331 4.46594C3.14263 4.44294 3.01444 4.40056 2.8905 4.34484C2.98105 4.17018 3.07846 3.99916 3.1825 3.83219C3.25794 3.86228 3.32988 3.88422 3.39147 3.89375C3.42606 3.89906 3.45469 3.90203 3.47841 3.9025C3.53922 3.7575 3.6041 3.61594 3.67472 3.47866C3.85903 3.10984 4.06269 2.72084 4.20597 2.29312V2.29306ZM11.8427 2.29306C11.9859 2.72075 12.1896 3.10978 12.3739 3.47863C12.4452 3.61727 12.511 3.75865 12.5711 3.90244C12.5946 3.90194 12.623 3.89891 12.6571 3.89369C12.7189 3.88412 12.7913 3.86244 12.8671 3.83212C12.9711 3.99911 13.0685 4.17014 13.1591 4.34481C13.0348 4.40063 12.9061 4.44294 12.7753 4.46594C12.8554 4.72812 12.9182 5.00031 12.9618 5.27937C13.0078 5.29994 13.0682 5.31437 13.1503 5.32337C13.2673 5.33619 13.4131 5.32712 13.5653 5.29797C13.6272 5.48378 13.68 5.67249 13.7235 5.86344C13.5099 5.90991 13.2935 5.92706 13.0868 5.90447C13.0663 5.90236 13.0458 5.89976 13.0253 5.89666C13.0414 6.20736 13.0332 6.51884 13.0009 6.82828C13.0556 6.90484 13.1492 6.96672 13.2929 7.02359C13.4482 7.085 13.6511 7.12172 13.8681 7.13003C13.8677 7.32546 13.857 7.52074 13.8359 7.71503C13.5697 7.70503 13.3107 7.65853 13.0781 7.56659C13.0156 7.54157 12.9549 7.51219 12.8965 7.47866C12.8381 7.743 12.7608 8.00279 12.665 8.256C12.6874 8.4035 12.7836 8.5345 12.9619 8.67106C13.1152 8.78834 13.3246 8.89075 13.5567 8.96594C13.4928 9.15156 13.419 9.33303 13.3379 9.51087C13.0693 9.42103 12.8184 9.29644 12.6075 9.13494C12.5196 9.06779 12.439 8.9915 12.3672 8.90734C12.2419 9.13928 12.101 9.35872 11.9453 9.56359C11.9216 9.74116 11.99 9.92303 12.1475 10.1291C12.2778 10.2996 12.4698 10.4687 12.6934 10.6154C12.5778 10.7743 12.4549 10.9268 12.3262 11.0744C12.0765 10.9058 11.8548 10.7075 11.6836 10.4836C11.5949 10.3675 11.5201 10.2405 11.4649 10.1066C11.2552 10.309 11.0281 10.4889 10.7861 10.6437C10.6753 10.8385 10.6868 11.0676 10.8057 11.3566C10.899 11.5831 11.0647 11.8265 11.2716 12.0509C11.1132 12.1689 10.9496 12.2796 10.7813 12.3829C10.5625 12.1354 10.3828 11.8637 10.2657 11.5792C10.1872 11.3884 10.1392 11.1847 10.1338 10.9826C9.89771 11.0791 9.65275 11.1524 9.40241 11.2013C9.28138 11.3663 9.24741 11.5864 9.28428 11.8712C9.32575 12.192 9.47428 12.569 9.6895 12.9162C9.25281 13.0777 8.80535 13.1845 8.35944 13.2267L8.41413 13.8087C8.97163 13.756 9.52494 13.6176 10.0577 13.4054C10.2843 13.6563 10.5376 13.8599 10.7774 13.9767C10.9666 14.0687 11.1339 14.112 11.2882 14.0987C11.6971 13.9276 12.088 13.7163 12.4551 13.4679C12.0208 13.3579 11.5938 13.115 11.2198 12.8057C11.3898 12.6962 11.5554 12.5778 11.7168 12.4532C12.035 12.6908 12.3873 12.8634 12.6875 12.9219C12.8768 12.9589 13.0341 12.959 13.167 12.9141C13.5796 12.5457 13.9456 12.1282 14.2569 11.671C13.7973 11.6999 13.3029 11.5762 12.8477 11.3663C12.9764 11.2128 13.0997 11.0541 13.2158 10.8897C13.5688 11.0338 13.9388 11.1081 14.2295 11.0879C14.4285 11.0742 14.5785 11.0301 14.6894 10.9424C14.9157 10.5008 15.0922 10.0354 15.2158 9.55475C15.2053 9.55859 15.1951 9.56287 15.1846 9.56647C14.7985 9.69919 14.3526 9.71406 13.916 9.6485C13.9956 9.46437 14.0666 9.27667 14.1289 9.086C14.4488 9.11809 14.763 9.09319 14.9942 9.01372C15.1743 8.95184 15.2957 8.8745 15.3682 8.76569C15.4306 8.29007 15.4417 7.80912 15.4014 7.33113C15.4001 7.332 15.3988 7.33316 15.3975 7.33406C15.1172 7.51869 14.7734 7.63041 14.417 7.68269C14.4346 7.48575 14.4438 7.28622 14.4424 7.08503C14.6899 7.03559 14.9177 6.95012 15.0761 6.84575C15.1884 6.77181 15.2619 6.70188 15.3037 6.626C15.2136 6.15749 15.0731 5.70009 14.8847 5.26178C14.7176 5.43584 14.5056 5.57303 14.2734 5.67878C14.2279 5.48603 14.1738 5.2954 14.1113 5.10747C14.2614 5.02894 14.3907 4.93672 14.4736 4.84769C14.5427 4.77344 14.5799 4.718 14.5928 4.66706C14.4072 4.33216 14.1935 4.01362 13.954 3.71487C13.8714 3.8335 13.7687 3.93925 13.6543 4.03425C13.5619 3.85738 13.4629 3.68407 13.3574 3.51469C13.4264 3.447 13.4809 3.37844 13.5126 3.32125C13.5294 3.29094 13.5414 3.2695 13.5488 3.25194C13.4828 3.18351 13.4154 3.11644 13.3466 3.05078C12.8187 2.66341 12.3903 2.46953 11.8427 2.29297L11.8427 2.29306ZM4.77522 4.19738L5.52816 8.25106H10.6562L11.372 4.36044L9.56144 6.34481L8.15616 4.24525L6.74991 6.34484L4.77528 4.19741L4.77522 4.19738ZM5.63656 8.83506L5.74791 9.43559H10.4383L10.5488 8.83503H5.63663L5.63656 8.83506Z" fill="#FFC966"/>
</svg>
