<svg width="18" height="17" viewBox="0 0 18 17" fill="none" xmlns="http://www.w3.org/2000/svg">
<path d="M9 16.6539L8.242 15.9689C6.61 14.4782 5.26 13.2022 4.192 12.1409C3.12467 11.0789 2.282 10.1422 1.664 9.3309C1.046 8.51957 0.614003 7.78624 0.368003 7.1309C0.122003 6.47557 -0.000663964 5.81524 2.7027e-06 5.1499C2.7027e-06 3.8779 0.432003 2.8099 1.296 1.9459C2.16 1.0819 3.228 0.649902 4.5 0.649902C5.38 0.649902 6.205 0.874902 6.975 1.3249C7.745 1.7749 8.42 2.42957 9 3.2889C9.58 2.42957 10.255 1.7749 11.025 1.3249C11.795 0.874902 12.62 0.649902 13.5 0.649902C14.772 0.649902 15.84 1.0819 16.704 1.9459C17.568 2.8099 18 3.8779 18 5.1499C18 5.8139 17.8773 6.4739 17.632 7.1299C17.386 7.78724 16.954 8.52123 16.336 9.3319C15.718 10.1426 14.8783 11.0789 13.817 12.1409C12.7557 13.2022 11.4023 14.4782 9.757 15.9689L9 16.6539ZM9 15.2999C10.6 13.8532 11.9167 12.6146 12.95 11.5839C13.9833 10.5532 14.8 9.65824 15.4 8.8989C16 8.13957 16.4167 7.4679 16.65 6.8839C16.8833 6.29857 17 5.72057 17 5.1499C17 4.1499 16.6667 3.31657 16 2.6499C15.3333 1.98324 14.5 1.6499 13.5 1.6499C12.704 1.6499 11.9693 1.87724 11.296 2.3319C10.6227 2.78657 10.0207 3.4709 9.49 4.3849H8.512C7.96734 3.45824 7.36167 2.77057 6.695 2.3219C6.02834 1.8739 5.297 1.6499 4.501 1.6499C3.51434 1.6499 2.68434 1.98324 2.011 2.6499C1.33767 3.31657 1.00067 4.1499 1 5.1499C1 5.72057 1.11667 6.29857 1.35 6.8839C1.58334 7.46924 2 8.1409 2.6 8.8989C3.2 9.6569 4.01667 10.5486 5.05 11.5739C6.08334 12.5992 7.4 13.8412 9 15.2999Z" fill="#EB2865"/>
</svg>
