<svg width="14" height="16" viewBox="0 0 14 16" fill="none" xmlns="http://www.w3.org/2000/svg">
<path d="M13.0778 6.68331L4.44176 15.5633C4.20176 15.8093 3.80376 15.5243 3.95976 15.2183L7.03376 9.15231C7.05704 9.10653 7.06818 9.05554 7.06611 9.00422C7.06404 8.9529 7.04883 8.90297 7.02193 8.85921C6.99504 8.81546 6.95736 8.77934 6.9125 8.75432C6.86765 8.7293 6.81712 8.71621 6.76576 8.71631H0.299757C0.240699 8.71626 0.182969 8.69879 0.133802 8.66607C0.0846347 8.63335 0.046218 8.58685 0.0233668 8.53239C0.000515729 8.47793 -0.00575341 8.41794 0.00534526 8.35993C0.0164439 8.30193 0.0444169 8.24849 0.0857577 8.20631L8.09576 0.0913129C8.32776 -0.143687 8.71376 0.114313 8.58476 0.419313L6.28776 5.83431C6.26831 5.88022 6.26061 5.93025 6.26535 5.97988C6.2701 6.02951 6.28714 6.07718 6.31493 6.11857C6.34272 6.15996 6.38039 6.19378 6.42454 6.21695C6.46868 6.24013 6.5179 6.25194 6.56776 6.25131L12.8588 6.17331C12.9181 6.17236 12.9764 6.18904 13.0263 6.22125C13.0762 6.25346 13.1154 6.29975 13.139 6.35425C13.1625 6.40875 13.1694 6.46902 13.1587 6.52742C13.1479 6.58582 13.1201 6.63973 13.0788 6.68231" fill="url(#paint0_linear_96_1785)"/>
<defs>
<linearGradient id="paint0_linear_96_1785" x1="-0.5" y1="13" x2="8.5" y2="2.30205e-08" gradientUnits="userSpaceOnUse">
<stop stop-color="#EB2865"/>
<stop offset="1" stop-color="#ED8C2B"/>
</linearGradient>
</defs>
</svg>
