<svg width="24" height="24" viewBox="0 0 24 24" fill="none" xmlns="http://www.w3.org/2000/svg">
<path d="M12 19.6539L11.242 18.9689C9.61 17.4782 8.26 16.2022 7.192 15.1409C6.12467 14.0789 5.282 13.1422 4.664 12.3309C4.046 11.5196 3.614 10.7862 3.368 10.1309C3.122 9.47557 2.99934 8.81524 3 8.1499C3 6.8779 3.432 5.8099 4.296 4.9459C5.16 4.0819 6.228 3.6499 7.5 3.6499C8.38 3.6499 9.205 3.8749 9.975 4.3249C10.745 4.7749 11.42 5.42957 12 6.2889C12.58 5.42957 13.255 4.7749 14.025 4.3249C14.795 3.8749 15.62 3.6499 16.5 3.6499C17.772 3.6499 18.84 4.0819 19.704 4.9459C20.568 5.8099 21 6.8779 21 8.1499C21 8.8139 20.8773 9.4739 20.632 10.1299C20.386 10.7872 19.954 11.5212 19.336 12.3319C18.718 13.1426 17.8783 14.0789 16.817 15.1409C15.7557 16.2022 14.4023 17.4782 12.757 18.9689L12 19.6539ZM12 18.2999C13.6 16.8532 14.9167 15.6146 15.95 14.5839C16.9833 13.5532 17.8 12.6582 18.4 11.8989C19 11.1396 19.4167 10.4679 19.65 9.8839C19.8833 9.29857 20 8.72057 20 8.1499C20 7.1499 19.6667 6.31657 19 5.6499C18.3333 4.98324 17.5 4.6499 16.5 4.6499C15.704 4.6499 14.9693 4.87724 14.296 5.3319C13.6227 5.78657 13.0207 6.4709 12.49 7.3849H11.512C10.9673 6.45824 10.3617 5.77057 9.695 5.3219C9.02834 4.8739 8.297 4.6499 7.501 4.6499C6.51434 4.6499 5.68434 4.98324 5.011 5.6499C4.33767 6.31657 4.00067 7.1499 4 8.1499C4 8.72057 4.11667 9.29857 4.35 9.8839C4.58334 10.4692 5 11.1409 5.6 11.8989C6.2 12.6569 7.01667 13.5486 8.05 14.5739C9.08334 15.5992 10.4 16.8412 12 18.2999Z" fill="#CDD7E3"/>
</svg>
