<svg width="32" height="40" viewBox="0 0 32 40" fill="none" xmlns="http://www.w3.org/2000/svg">
<path d="M21.8952 20.3133C24.9658 19.6724 26.7377 16.7859 26.9129 14.6888C23.8445 12.1963 19.8178 14.8804 18.8593 16.4146C18.8593 16.4146 18.0975 16.4158 17.1448 16.5006C17.1448 16.4882 17.1431 16.477 17.1431 16.4646C17.1459 16.0197 17.2464 15.4843 17.6616 14.8327C18.0795 14.1838 18.8379 13.4102 20.2064 12.612C21.6681 11.7581 23.0804 10.7666 24.1815 9.62056C24.732 9.04532 25.2056 8.42899 25.5545 7.75149C25.9017 7.07626 26.1219 6.32915 26.1219 5.54267C26.1219 5.03649 26.0292 4.5197 25.8399 4.02079C25.5556 3.2697 25.2331 2.79048 24.5546 2.13602C23.8731 1.48048 22.1659 0.600166 20.5446 0.0883688C19.4587 -0.254287 19.2576 0.472041 20.0256 1.02657C21.1974 1.87259 22.1828 2.56079 23.0456 3.66298C23.2782 3.96017 23.5939 4.58821 23.6878 4.8354C23.7816 5.08368 23.8198 5.31118 23.8209 5.54267C23.8203 5.89829 23.7231 6.27798 23.5074 6.70103C23.3288 7.05212 22.9018 7.6004 22.5664 7.97735C22.4506 8.10712 22.6018 8.75767 22.4703 8.8886C22.3995 8.61157 20.3778 6.08813 18.5396 5.67642C17.629 5.47251 17.5088 6.06009 18.2998 6.53931C20.1076 7.63478 20.1217 8.40884 20.1553 8.93696C20.1638 9.06618 20.1256 9.23415 19.975 9.49931C19.8245 9.7622 19.4116 10.2622 18.9251 10.6673C18.8453 10.7347 18.3425 11.0117 18.2853 11.0937C16.792 11.9959 16.3556 12.611 15.727 13.5879C15.0686 14.6052 14.8388 15.6266 14.8422 16.4648C14.8422 16.6126 14.8512 16.7518 14.863 16.8878C14.5855 16.9681 14.327 17.0608 14.1091 17.1715C14.1091 17.1715 7.8122 21.5702 7.65994 21.8752C7.50713 22.1808 6.5915 24.774 6.5915 24.774C6.5915 24.774 0.488376 29.0463 0.0311103 29.5041C-0.426702 29.9619 4.30283 34.692 5.37072 34.387C6.43869 34.0813 13.6821 32.4028 13.6821 32.4028L16.1741 40H31.3228L21.8952 20.3133Z" fill="url(#paint0_linear_105_1267)"/>
<defs>
<linearGradient id="paint0_linear_105_1267" x1="15.6614" y1="0" x2="15.6614" y2="40" gradientUnits="userSpaceOnUse">
<stop offset="0.278846" stop-color="#FF4545"/>
<stop offset="1" stop-color="#ED8C2B"/>
</linearGradient>
</defs>
</svg>
