<svg width="24" height="24" viewBox="0 0 24 24" fill="none" xmlns="http://www.w3.org/2000/svg">
<path d="M20.4656 6.64688C19.3687 6.19688 18.2719 6 17.175 6C13.7156 6 10.2562 7.77187 6.79687 7.77187C5.925 7.77187 5.05312 7.65937 4.18125 7.37812C4.09687 7.35 3.98437 7.32187 3.9 7.32187C3.42187 7.32187 3 7.71563 3 8.22188V17.1656C3 17.5031 3.19687 17.8406 3.50625 17.9812C4.60312 18.4312 5.7 18.6 6.79687 18.6C10.2562 18.6 13.7156 16.8562 17.175 16.8562C18.0469 16.8562 18.9187 16.9688 19.7906 17.25C19.875 17.2781 19.9875 17.2781 20.0719 17.2781C20.55 17.2781 21 16.9125 21 16.4062V7.4625C21 7.125 20.775 6.7875 20.4656 6.64688ZM4.35 8.84063C4.9125 8.98125 5.50312 9.0375 6.09375 9.09375C5.925 9.90938 5.22187 10.5281 4.35 10.5281V8.84063ZM4.35 16.8562V15.5063C5.30625 15.5063 6.09375 16.2656 6.12188 17.2219C5.50313 17.1938 4.9125 17.0531 4.35 16.8562ZM12 15C10.7344 15 9.75 13.8187 9.75 12.3C9.75 10.8094 10.7344 9.6 12 9.6C13.2375 9.6 14.25 10.8094 14.25 12.3C14.25 13.8187 13.2375 15 12 15ZM19.65 15.7875C19.1437 15.675 18.6375 15.5906 18.1031 15.5625C18.2719 14.8313 18.8906 14.2688 19.65 14.1844V15.7875ZM19.65 9.15C18.7781 9.0375 18.1031 8.30625 18.075 7.43438C18.6094 7.49063 19.1437 7.60312 19.65 7.77187V9.15Z" fill="#777C91"/>
</svg>
