<svg width="19" height="19" viewBox="0 0 19 19" fill="none" xmlns="http://www.w3.org/2000/svg">
<path d="M3.94905 12.0002H3.15671C2.60521 12.075 3.68651 12.6379 3.68651 12.6379C3.68651 12.6379 4.21631 12.2348 4.21631 12.1128C4.21599 11.9907 3.94905 12.0002 3.94905 12.0002ZM7.99596 15.8426C7.84944 15.9301 7.70355 16.1273 7.6721 16.2805L7.61236 16.5714C7.58092 16.725 7.61519 16.9059 7.68814 16.9736C7.76109 17.0416 7.8595 16.9736 7.90635 16.8236L8.17675 15.9578C8.22423 15.8068 8.14248 15.7547 7.99596 15.8426ZM11.8058 15.512C11.6596 15.6002 11.5134 15.7967 11.4823 15.9506L11.4222 16.2408C11.3908 16.3944 11.4253 16.5753 11.4983 16.6437C11.5712 16.7113 11.6696 16.644 11.7168 16.493L11.9869 15.6278C12.0334 15.4762 11.952 15.4245 11.8058 15.512Z" fill="#CDD7E3"/>
<path d="M16.0312 13.16C15.6077 13.1589 15.1887 13.2483 14.8024 13.422C14.4161 13.5958 14.0713 13.85 13.7911 14.1677L13.5866 14.0771C13.6521 14.0172 13.7228 13.9552 13.8048 13.8903C13.9346 13.7883 13.984 13.6724 13.9865 13.5574L17.9214 11.6945C17.9321 11.447 17.8655 11.2023 17.7308 10.9944C18.2783 10.3066 18.2875 9.48638 18.2875 9.44142V8.97433H17.8125C17.1063 8.97433 16.5531 8.98953 15.8666 9.18745C15.3973 9.32298 15.0632 9.46865 14.8159 9.62635C14.8859 9.30525 14.8418 8.93285 14.5673 8.53638C14.5673 8.53638 12.7594 6.65032 10.6808 6.0667C11.3031 5.57207 11.5083 5.02582 11.5083 3.88645C11.5083 1.74325 9.73592 0 7.55725 0C5.3789 0 3.60652 1.74325 3.60652 3.88613C3.60652 4.0413 3.61665 4.17905 3.63407 4.30477L3.62868 4.30667C3.24932 4.4422 3.95485 6.38843 4.35955 6.40807C4.93968 7.76847 5.80355 8.0769 6.46475 8.0769C6.80327 8.0769 7.163 7.9876 7.51577 7.8261L7.62407 9.10575L6.98028 9.44712L6.95052 9.42052L6.50307 9.01898L6.3669 8.89643H6.18292C4.74557 8.89643 3.39815 9.5893 2.5783 10.7492L2.51338 10.8405C2.12768 11.381 1.88005 11.7635 1.9494 12.1388C1.98012 12.3038 2.07322 12.446 2.21223 12.5387C2.33922 12.6242 2.5194 12.7433 2.7246 12.8788C2.05578 12.926 1.41749 13.1771 0.89585 13.5983L1.33475 13.6433C0.530733 14.1651 0 15.0616 0 16.08C0 17.6931 1.32905 19 2.96875 19C4.26043 19 5.3561 18.1877 5.7646 17.0547L5.76523 17.0829C5.76409 17.1973 5.78574 17.3107 5.82892 17.4166C5.87209 17.5225 5.93592 17.6188 6.01669 17.6998C6.09746 17.7807 6.19355 17.8448 6.29935 17.8882C6.40514 17.9317 6.51853 17.9536 6.6329 17.9528C6.66034 17.9528 6.68853 17.9515 6.71745 17.949L6.72948 17.9484L6.74152 17.9464L12.5574 17.1532L13.0096 17.0918L12.965 16.6453C12.9605 16.6025 12.9599 16.5598 12.9586 16.5167C12.9574 16.4456 12.9535 16.3747 12.9469 16.3039C12.9273 16.1004 12.9209 15.8958 12.9276 15.6915L13.0815 15.7551C13.0689 15.8629 13.0624 15.9712 13.0622 16.0797C13.0622 17.6928 14.3912 18.9997 16.0309 18.9997C17.6706 18.9997 19 17.6931 19 16.08C19 14.4669 17.6709 13.16 16.0312 13.16ZM13.5752 11.6438C15.0293 10.9196 13.953 10.2261 16.0002 9.63553C16.6291 9.4544 17.1339 9.44142 17.8125 9.44142C17.8125 9.44142 17.8125 10.6277 16.7944 11.1752C14.7244 12.2886 13.0625 12.3893 13.0625 12.3893C13.0625 12.3893 13.0438 11.9082 13.5752 11.6438ZM11.4636 13.4146C11.6493 13.5724 11.7807 13.7845 11.8392 14.021C11.4459 14.086 11.2518 14.3507 11.1299 14.5176C11.1261 14.5233 11.1236 14.5255 11.1201 14.5306L11.4636 13.4146ZM7.4043 7.18802C7.08383 7.36155 6.75925 7.4537 6.46443 7.4537C5.71203 7.4537 5.24368 6.85203 4.95488 6.19147C6.13003 5.69652 7.56865 4.88997 8.13802 4.29812C8.19453 4.31516 8.25316 4.32422 8.31218 4.32503C8.66115 4.32503 8.94362 4.04668 8.94362 3.70405C8.94362 3.36142 8.66083 3.08307 8.31218 3.08307C8.01832 3.08307 7.77385 3.28098 7.70323 3.54857C6.85552 3.50613 5.38872 3.77403 4.24935 4.10717C4.24287 4.03377 4.23959 3.96013 4.23953 3.88645C4.23953 2.08715 5.72787 0.6232 7.55693 0.6232C9.386 0.6232 10.8746 2.08715 10.8746 3.88645C10.8746 5.36908 10.6223 5.5005 8.6583 6.52428C8.23836 6.74185 7.82035 6.9631 7.4043 7.18802ZM7.08478 11.1264C7.11328 11.0561 7.12785 10.9877 7.13323 10.9183L9.0554 10.0539C9.15804 9.99922 9.23982 9.91229 9.28807 9.8065C9.33633 9.70071 9.34838 9.58197 9.32235 9.46865H9.32552L9.2796 8.93L10.5897 10.0747C10.5488 10.069 10.5086 10.0605 10.4671 10.0605C10.3873 10.0605 10.3094 10.0709 10.2359 10.0922C9.91483 10.1837 9.45123 10.3626 9.00252 10.5355C8.75425 10.6315 8.5196 10.7217 8.34575 10.7828C7.96607 10.9152 7.7197 11.2189 7.7197 11.5555V11.615C7.43001 11.5493 7.13904 11.4893 6.84697 11.4351C6.95558 11.35 7.03285 11.2531 7.08478 11.1264ZM10.1314 10.6156L9.8021 11.9082L9.2416 12.04C8.89662 11.9233 8.54729 11.8199 8.19438 11.73V11.5552C8.19438 11.4076 8.34037 11.2797 8.50503 11.222C8.91955 11.077 9.63363 10.7838 10.1314 10.6156ZM5.59772 9.79133L5.833 9.69285C5.87818 9.67385 5.92388 9.66456 5.97012 9.66498C6.1009 9.66498 6.2244 9.73782 6.27887 9.861L6.48185 10.3274C6.78363 11.0187 6.78363 11.0187 5.85643 11.407C5.72945 11.4605 5.61893 11.482 5.52298 11.482C5.14488 11.482 4.997 11.1432 4.96533 11.07C4.72118 10.5127 5.08408 10.2321 5.38808 10.0795C5.39568 9.95822 5.47295 9.84327 5.59772 9.79133ZM4.45328 16.08C4.45328 16.1471 4.4422 16.2111 4.43333 16.276L5.03912 16.2361C5.01985 16.4886 4.95268 16.7352 4.8412 16.9626L4.3415 16.6335C4.28916 16.7544 4.22067 16.8677 4.13788 16.9702L4.6835 17.2343C4.53705 17.4434 4.35352 17.6239 4.142 17.7669L3.87378 17.2301C3.77377 17.3093 3.66379 17.375 3.54667 17.4255L3.88582 17.9122C3.64829 18.0276 3.39105 18.0969 3.12772 18.1165L3.16825 17.5205C3.10238 17.5294 3.03715 17.5402 2.96907 17.5402C2.90605 17.5402 2.8462 17.5297 2.78508 17.5221L2.83163 18.1175C2.56811 18.1008 2.31012 18.0344 2.07132 17.9218L2.40603 17.43C2.28336 17.3793 2.16819 17.312 2.06372 17.2301L1.7955 17.7669C1.58398 17.6239 1.40045 17.4434 1.254 17.2343L1.79962 16.9705C1.71684 16.868 1.64834 16.7548 1.596 16.6339L1.0963 16.9629C0.984819 16.7355 0.917651 16.489 0.898383 16.2364L1.50417 16.2763C1.4953 16.2114 1.48422 16.1475 1.48422 16.0803C1.48422 16.0179 1.4953 15.959 1.5029 15.8992L0.897433 15.9451C0.914384 15.6855 0.981941 15.4318 1.0963 15.1981L1.596 15.5271C1.64508 15.4096 1.71222 15.3023 1.78917 15.2025L1.24133 14.9435C1.38918 14.7265 1.57717 14.5398 1.79518 14.3934L2.06372 14.9302C2.16815 14.8481 2.28332 14.7806 2.40603 14.7297L2.07132 14.238C2.30354 14.1283 2.55398 14.0624 2.8101 14.0435L2.76957 14.6395C2.83543 14.6309 2.90067 14.6195 2.96875 14.6195C3.03683 14.6195 3.10207 14.6306 3.16793 14.6395L3.12772 14.0435C3.3293 14.0588 3.52759 14.1033 3.7164 14.1756L3.19105 15.2345C3.11854 15.2154 3.04403 15.205 2.96907 15.2035C2.47697 15.2035 2.07828 15.5955 2.07828 16.08C2.07828 16.5645 2.47697 16.9559 2.96907 16.9559C3.46085 16.9559 3.85985 16.5645 3.85985 16.08C3.85985 15.8267 3.74933 15.6006 3.57517 15.4407L4.25442 14.4853C4.41718 14.6123 4.56602 14.756 4.68413 14.9258L4.13852 15.1899C4.21673 15.289 4.28672 15.3941 4.33707 15.5113L4.83202 15.1775C4.94633 15.4058 5.01885 15.6569 5.03943 15.9233L4.43365 15.8837C4.44188 15.9486 4.45328 16.0126 4.45328 16.08ZM12.4745 16.3536C12.4868 16.4667 12.4811 16.58 12.4925 16.6906L6.67597 17.4841C6.66164 17.4852 6.64727 17.4859 6.6329 17.486C6.37957 17.486 6.24023 17.2856 6.24023 17.0759C6.24023 17.0759 6.2092 15.0752 5.9375 14.5835C5.79848 14.3317 5.05938 13.8482 5.04798 13.8406C5.04798 13.8406 3.1179 12.5805 2.47982 12.1524C2.2439 11.9944 2.69167 11.407 2.96843 11.0159C3.50952 10.2526 4.30632 9.70859 5.21423 9.48258C5.11607 9.56112 5.03595 9.6577 4.98465 9.77012C4.6246 10.001 4.47482 10.2743 4.42858 10.5308C4.33643 10.6137 4.24492 10.7033 4.15625 10.8053C4.03212 10.9472 3.61823 11.5536 4.15625 11.5536C4.26138 11.5536 4.46848 11.5675 4.74557 11.5957C4.84159 11.7077 4.96091 11.7974 5.09519 11.8585C5.22947 11.9196 5.37546 11.9506 5.52298 11.9494C5.68987 11.9494 5.86498 11.9111 6.04327 11.8364L6.15822 11.7882C7.17567 11.9545 8.38407 12.2132 9.35148 12.5755C9.44522 12.6105 9.53029 12.6447 9.60672 12.6781L9.11398 14.6138L8.89073 14.5587C8.73834 14.5208 8.57975 14.5148 8.42492 14.541C8.45342 14.5068 8.43537 14.4552 8.3543 14.395L6.32193 12.8918C6.18228 12.7886 6.06765 12.8193 6.06765 12.9605C6.06765 13.1018 6.18133 13.3019 6.32003 13.4064L7.6323 14.3928C7.77132 14.4973 8.02782 14.5828 8.2023 14.5828H8.2517C7.9097 14.6959 7.63483 14.9676 7.5449 15.3317L10.1298 15.9704C10.4297 16.0442 10.7309 15.8716 10.8021 15.5828L10.8993 15.194C11.5852 15.1107 11.4567 14.4733 12.0238 14.4733C12.2427 14.4733 12.4352 14.5059 12.6033 14.5505C12.4681 15.0002 12.4137 15.782 12.4745 16.3536ZM12.2683 13.4941L12.0618 13.4032L13.2177 12.8434C13.5355 12.8072 13.8508 12.7518 14.162 12.6774L13.6863 12.9742C13.6233 12.908 13.5749 12.8677 13.5749 12.8677L12.2683 13.4941ZM14.858 14.3934L15.0151 14.7082L14.6639 14.5531C14.7269 14.498 14.788 14.4406 14.858 14.3934ZM17.5158 16.08C17.5158 16.1471 17.5047 16.2111 17.4958 16.276L18.1013 16.2361C18.082 16.4886 18.0149 16.7352 17.9034 16.9626L17.4037 16.6335C17.3513 16.7544 17.2828 16.8677 17.2001 16.9702L17.7457 17.2339C17.5999 17.4435 17.4164 17.6241 17.2045 17.7666L16.936 17.2301C16.8353 17.3068 16.7282 17.3758 16.6095 17.4252L16.9483 17.9119C16.7107 18.0273 16.4533 18.0966 16.1899 18.1162L16.2301 17.5202C16.1646 17.5291 16.099 17.5398 16.0309 17.5398C15.9679 17.5398 15.9077 17.5294 15.8473 17.5218L15.8935 18.1171C15.6301 18.1005 15.3722 18.0341 15.1335 17.9214L15.4682 17.4296C15.3456 17.3786 15.2304 17.3114 15.1256 17.2298L14.8577 17.7666C14.6458 17.6241 14.4623 17.4435 14.3165 17.2339L14.8621 16.9699C14.7793 16.8674 14.7108 16.7541 14.6585 16.6332L14.1588 16.9622C14.0473 16.7349 13.9802 16.4883 13.9609 16.2358L14.2956 16.2577L15.4429 16.7327C15.6054 16.8757 15.8144 16.9548 16.0309 16.9553C16.5227 16.9553 16.9217 16.5639 16.9217 16.0794C16.9217 15.6408 16.594 15.2811 16.1665 15.2165L15.2801 14.8247C15.34 14.7886 15.4027 14.7557 15.4682 14.7291L15.1335 14.2373C15.3656 14.1277 15.616 14.0618 15.872 14.0429L15.8317 14.6389C15.8973 14.6303 15.9628 14.6189 16.0309 14.6189C16.099 14.6189 16.1646 14.63 16.2301 14.6389L16.1899 14.0429C16.4459 14.0618 16.6962 14.1277 16.9284 14.2373L16.5937 14.7291C16.713 14.7772 16.822 14.8434 16.9239 14.9194L17.1861 14.3805C17.4058 14.5247 17.5959 14.7097 17.746 14.9254L17.2004 15.1892C17.2783 15.2883 17.3483 15.3938 17.3989 15.511L17.8939 15.1772C18.0082 15.4055 18.0807 15.6566 18.101 15.923L17.4958 15.884C17.5044 15.9486 17.5158 16.0126 17.5158 16.08Z" fill="#CDD7E3"/>
</svg>
