<svg width="24" height="24" viewBox="0 0 24 24" fill="none" xmlns="http://www.w3.org/2000/svg">
<path d="M19.0312 16.16C18.6077 16.1589 18.1887 16.2483 17.8024 16.422C17.4161 16.5958 17.0713 16.85 16.7911 17.1677L16.5866 17.0771C16.6521 17.0172 16.7228 16.9552 16.8048 16.8903C16.9346 16.7883 16.984 16.6724 16.9865 16.5574L20.9214 14.6945C20.9321 14.447 20.8655 14.2023 20.7308 13.9944C21.2783 13.3066 21.2875 12.4864 21.2875 12.4414V11.9743H20.8125C20.1063 11.9743 19.5531 11.9895 18.8666 12.1875C18.3973 12.323 18.0632 12.4686 17.8159 12.6263C17.8859 12.3052 17.8418 11.9328 17.5673 11.5364C17.5673 11.5364 15.7594 9.65032 13.6809 9.0667C14.3031 8.57207 14.5083 8.02582 14.5083 6.88645C14.5083 4.74325 12.7359 3 10.5573 3C8.3789 3 6.60652 4.74325 6.60652 6.88613C6.60652 7.0413 6.61665 7.17905 6.63407 7.30477L6.62868 7.30667C6.24932 7.4422 6.95485 9.38843 7.35955 9.40807C7.93968 10.7685 8.80355 11.0769 9.46475 11.0769C9.80327 11.0769 10.163 10.9876 10.5158 10.8261L10.6241 12.1058L9.98028 12.4471L9.95052 12.4205L9.50307 12.019L9.3669 11.8964H9.18292C7.74557 11.8964 6.39815 12.5893 5.5783 13.7492L5.51338 13.8405C5.12768 14.381 4.88005 14.7635 4.9494 15.1388C4.98012 15.3038 5.07322 15.446 5.21223 15.5387C5.33922 15.6242 5.5194 15.7433 5.7246 15.8788C5.05578 15.926 4.41749 16.1771 3.89585 16.5983L4.33475 16.6433C3.53073 17.1651 3 18.0616 3 19.08C3 20.6931 4.32905 22 5.96875 22C7.26043 22 8.3561 21.1877 8.7646 20.0547L8.76523 20.0829C8.76409 20.1973 8.78574 20.3107 8.82892 20.4166C8.87209 20.5225 8.93592 20.6188 9.01669 20.6998C9.09746 20.7807 9.19355 20.8448 9.29935 20.8882C9.40514 20.9317 9.51853 20.9536 9.6329 20.9528C9.66034 20.9528 9.68853 20.9515 9.71745 20.949L9.72948 20.9484L9.74152 20.9464L15.5574 20.1532L16.0096 20.0918L15.965 19.6453C15.9605 19.6025 15.9599 19.5598 15.9586 19.5167C15.9574 19.4456 15.9535 19.3747 15.9469 19.3039C15.9273 19.1004 15.9209 18.8958 15.9276 18.6915L16.0815 18.7551C16.0689 18.8629 16.0624 18.9712 16.0622 19.0797C16.0622 20.6928 17.3912 21.9997 19.0309 21.9997C20.6706 21.9997 22 20.6931 22 19.08C22 17.4669 20.6709 16.16 19.0312 16.16ZM16.5752 14.6438C18.0293 13.9196 16.953 13.2261 19.0002 12.6355C19.6291 12.4544 20.1339 12.4414 20.8125 12.4414C20.8125 12.4414 20.8125 13.6277 19.7944 14.1752C17.7244 15.2886 16.0625 15.3893 16.0625 15.3893C16.0625 15.3893 16.0438 14.9082 16.5752 14.6438ZM14.4636 16.4146C14.6493 16.5724 14.7807 16.7845 14.8392 17.021C14.4459 17.086 14.2518 17.3507 14.1299 17.5176C14.1261 17.5233 14.1236 17.5255 14.1201 17.5306L14.4636 16.4146ZM10.4043 10.188C10.0838 10.3615 9.75925 10.4537 9.46443 10.4537C8.71203 10.4537 8.24368 9.85203 7.95488 9.19147C9.13003 8.69652 10.5686 7.88997 11.138 7.29812C11.1945 7.31516 11.2532 7.32422 11.3122 7.32503C11.6611 7.32503 11.9436 7.04668 11.9436 6.70405C11.9436 6.36142 11.6608 6.08307 11.3122 6.08307C11.0183 6.08307 10.7738 6.28098 10.7032 6.54857C9.85552 6.50613 8.38872 6.77403 7.24935 7.10717C7.24287 7.03377 7.23959 6.96013 7.23953 6.88645C7.23953 5.08715 8.72787 3.6232 10.5569 3.6232C12.386 3.6232 13.8747 5.08715 13.8747 6.88645C13.8747 8.36908 13.6223 8.5005 11.6583 9.52428C11.2384 9.74185 10.8203 9.9631 10.4043 10.188ZM10.0848 14.1264C10.1133 14.0561 10.1278 13.9877 10.1332 13.9184L12.0554 13.0539C12.158 12.9992 12.2398 12.9123 12.2881 12.8065C12.3363 12.7007 12.3484 12.582 12.3223 12.4686H12.3255L12.2796 11.93L13.5897 13.0747C13.5488 13.069 13.5086 13.0605 13.4671 13.0605C13.3873 13.0605 13.3094 13.0709 13.2359 13.0922C12.9148 13.1837 12.4512 13.3626 12.0025 13.5355C11.7543 13.6314 11.5196 13.7217 11.3457 13.7828C10.9661 13.9152 10.7197 14.2189 10.7197 14.5555V14.615C10.43 14.5493 10.139 14.4893 9.84697 14.4352C9.95558 14.35 10.0328 14.2531 10.0848 14.1264ZM13.1314 13.6156L12.8021 14.9082L12.2416 15.04C11.8966 14.9233 11.5473 14.8199 11.1944 14.73V14.5552C11.1944 14.4076 11.3404 14.2797 11.505 14.222C11.9195 14.077 12.6336 13.7838 13.1314 13.6156ZM8.59772 12.7913L8.833 12.6929C8.87818 12.6739 8.92388 12.6646 8.97012 12.665C9.1009 12.665 9.2244 12.7378 9.27887 12.861L9.48185 13.3274C9.78363 14.0187 9.78363 14.0187 8.85643 14.407C8.72945 14.4605 8.61893 14.482 8.52298 14.482C8.14488 14.482 7.997 14.1432 7.96533 14.07C7.72118 13.5127 8.08408 13.2321 8.38808 13.0795C8.39568 12.9582 8.47295 12.8433 8.59772 12.7913ZM7.45328 19.08C7.45328 19.1472 7.4422 19.2111 7.43333 19.276L8.03912 19.2361C8.01985 19.4886 7.95268 19.7352 7.8412 19.9626L7.3415 19.6336C7.28916 19.7544 7.22066 19.8677 7.13788 19.9702L7.6835 20.2343C7.53705 20.4434 7.35352 20.6239 7.142 20.7669L6.87378 20.2302C6.77377 20.3093 6.66379 20.375 6.54667 20.4255L6.88582 20.9122C6.64829 21.0276 6.39105 21.0969 6.12772 21.1165L6.16825 20.5205C6.10238 20.5294 6.03715 20.5402 5.96907 20.5402C5.90605 20.5402 5.8462 20.5297 5.78508 20.5221L5.83163 21.1175C5.56811 21.1008 5.31012 21.0344 5.07132 20.9218L5.40603 20.43C5.28336 20.3793 5.16818 20.312 5.06372 20.2302L4.7955 20.7669C4.58398 20.6239 4.40045 20.4434 4.254 20.2343L4.79962 19.9705C4.71684 19.868 4.64834 19.7548 4.596 19.6339L4.0963 19.9629C3.98482 19.7355 3.91765 19.489 3.89838 19.2365L4.50417 19.2764C4.4953 19.2114 4.48422 19.1475 4.48422 19.0803C4.48422 19.018 4.4953 18.9591 4.5029 18.8992L3.89743 18.9451C3.91438 18.6855 3.98194 18.4318 4.0963 18.1981L4.596 18.5271C4.64508 18.4096 4.71222 18.3023 4.78917 18.2025L4.24133 17.9435C4.38918 17.7265 4.57717 17.5398 4.79518 17.3934L5.06372 17.9302C5.16815 17.8481 5.28332 17.7806 5.40603 17.7297L5.07132 17.238C5.30354 17.1283 5.55398 17.0624 5.8101 17.0435L5.76957 17.6395C5.83543 17.6309 5.90067 17.6195 5.96875 17.6195C6.03683 17.6195 6.10207 17.6306 6.16793 17.6395L6.12772 17.0435C6.3293 17.0588 6.52759 17.1033 6.7164 17.1756L6.19105 18.2345C6.11854 18.2154 6.04403 18.205 5.96907 18.2035C5.47697 18.2035 5.07828 18.5955 5.07828 19.08C5.07828 19.5645 5.47697 19.9559 5.96907 19.9559C6.46085 19.9559 6.85985 19.5645 6.85985 19.08C6.85985 18.8267 6.74933 18.6006 6.57517 18.4407L7.25442 17.4853C7.41718 17.6123 7.56602 17.756 7.68413 17.9258L7.13852 18.1899C7.21673 18.289 7.28672 18.3941 7.33707 18.5113L7.83202 18.1775C7.94633 18.4058 8.01885 18.6569 8.03943 18.9233L7.43365 18.8837C7.44188 18.9486 7.45328 19.0126 7.45328 19.08ZM15.4745 19.3536C15.4868 19.4667 15.4811 19.58 15.4925 19.6905L9.67597 20.4841C9.66164 20.4852 9.64727 20.4859 9.6329 20.486C9.37957 20.486 9.24023 20.2856 9.24023 20.0759C9.24023 20.0759 9.2092 18.0752 8.9375 17.5835C8.79848 17.3317 8.05938 16.8482 8.04798 16.8406C8.04798 16.8406 6.1179 15.5805 5.47982 15.1524C5.2439 14.9944 5.69167 14.407 5.96843 14.0159C6.50952 13.2526 7.30632 12.7086 8.21423 12.4826C8.11607 12.5611 8.03595 12.6577 7.98465 12.7701C7.6246 13.001 7.47482 13.2743 7.42858 13.5308C7.33643 13.6137 7.24492 13.7033 7.15625 13.8053C7.03212 13.9472 6.61823 14.5536 7.15625 14.5536C7.26138 14.5536 7.46848 14.5675 7.74557 14.5957C7.84159 14.7077 7.96091 14.7974 8.09519 14.8585C8.22947 14.9196 8.37546 14.9506 8.52298 14.9494C8.68987 14.9494 8.86498 14.9111 9.04327 14.8364L9.15822 14.7882C10.1757 14.9545 11.3841 15.2132 12.3515 15.5755C12.4452 15.6105 12.5303 15.6447 12.6067 15.6781L12.114 17.6138L11.8907 17.5587C11.7383 17.5208 11.5798 17.5148 11.4249 17.541C11.4534 17.5068 11.4354 17.4552 11.3543 17.395L9.32193 15.8918C9.18228 15.7886 9.06765 15.8193 9.06765 15.9605C9.06765 16.1018 9.18133 16.3019 9.32003 16.4064L10.6323 17.3928C10.7713 17.4973 11.0278 17.5828 11.2023 17.5828H11.2517C10.9097 17.6959 10.6348 17.9676 10.5449 18.3317L13.1298 18.9704C13.4297 19.0442 13.7309 18.8716 13.8021 18.5828L13.8993 18.194C14.5852 18.1107 14.4567 17.4733 15.0238 17.4733C15.2427 17.4733 15.4352 17.5059 15.6033 17.5505C15.4681 18.0002 15.4137 18.782 15.4745 19.3536ZM15.2683 16.4941L15.0618 16.4032L16.2177 15.8434C16.5355 15.8072 16.8508 15.7518 17.162 15.6774L16.6863 15.9741C16.6233 15.908 16.5749 15.8677 16.5749 15.8677L15.2683 16.4941ZM17.858 17.3934L18.0151 17.7082L17.6639 17.5531C17.7269 17.4979 17.788 17.4406 17.858 17.3934ZM20.5158 19.08C20.5158 19.1472 20.5047 19.2111 20.4958 19.276L21.1013 19.2361C21.082 19.4886 21.0149 19.7352 20.9034 19.9626L20.4037 19.6336C20.3513 19.7544 20.2828 19.8677 20.2001 19.9702L20.7457 20.2339C20.5999 20.4435 20.4164 20.6241 20.2045 20.7666L19.936 20.2302C19.8353 20.3068 19.7282 20.3758 19.6095 20.4252L19.9483 20.9119C19.7107 21.0273 19.4533 21.0966 19.1899 21.1162L19.2301 20.5202C19.1646 20.5291 19.099 20.5399 19.0309 20.5399C18.9679 20.5399 18.9077 20.5294 18.8473 20.5218L18.8935 21.1171C18.6301 21.1005 18.3722 21.0341 18.1335 20.9214L18.4682 20.4296C18.3456 20.3786 18.2304 20.3114 18.1256 20.2298L17.8577 20.7666C17.6458 20.6241 17.4623 20.4435 17.3165 20.2339L17.8621 19.9699C17.7793 19.8674 17.7108 19.7541 17.6585 19.6332L17.1588 19.9622C17.0473 19.7349 16.9802 19.4883 16.9609 19.2358L17.2956 19.2577L18.4429 19.7327C18.6054 19.8757 18.8144 19.9548 19.0309 19.9553C19.5227 19.9553 19.9217 19.5639 19.9217 19.0794C19.9217 18.6408 19.594 18.2811 19.1665 18.2165L18.2801 17.8247C18.34 17.7886 18.4027 17.7557 18.4682 17.7291L18.1335 17.2373C18.3656 17.1277 18.616 17.0618 18.872 17.0429L18.8317 17.6389C18.8973 17.6303 18.9628 17.6189 19.0309 17.6189C19.099 17.6189 19.1646 17.63 19.2301 17.6389L19.1899 17.0429C19.4459 17.0618 19.6962 17.1277 19.9284 17.2373L19.5937 17.7291C19.713 17.7773 19.822 17.8434 19.9239 17.9194L20.1861 17.3805C20.4058 17.5247 20.5959 17.7097 20.746 17.9254L20.2004 18.1892C20.2783 18.2884 20.3483 18.3938 20.3989 18.511L20.8939 18.1772C21.0082 18.4055 21.0807 18.6566 21.101 18.9229L20.4958 18.884C20.5044 18.9486 20.5158 19.0126 20.5158 19.08Z" fill="#CDD7E3"/>
</svg>
