<svg width="24" height="24" viewBox="0 0 24 24" fill="none" xmlns="http://www.w3.org/2000/svg">
<path d="M12 19.072C8.74202 17.673 6.61452 14.982 6.24002 11.73C6.13737 10.2204 6.12618 8.706 6.20652 7.19504C7.96902 7.04504 10.102 6.59654 12 5.20654C13.9015 6.59804 16.035 7.04654 17.7935 7.19604C17.874 8.71604 17.8625 10.2305 17.7595 11.73C17.386 14.982 15.258 17.673 12 19.072Z" stroke="#CDD7E3" stroke-width="0.5" stroke-linecap="round" stroke-linejoin="round"/>
<path d="M12 21.75C16.5215 20.1915 19.7445 16.5685 20.25 11.9555C20.39 9.95297 20.3785 7.94297 20.2145 5.94197C20.1929 5.62657 20.0545 5.33054 19.8263 5.11176C19.5981 4.89299 19.2965 4.76719 18.9805 4.75897C16.935 4.69597 14.5575 4.35497 12.7205 2.54547C12.5287 2.356 12.2699 2.24976 12.0002 2.24976C11.7306 2.24976 11.4718 2.356 11.28 2.54547C9.4425 4.35497 7.065 4.69597 5.02 4.75897C4.70397 4.76719 4.40237 4.89299 4.17416 5.11176C3.94595 5.33054 3.80755 5.62657 3.786 5.94197C3.62198 7.94267 3.60994 9.95294 3.75 11.9555C4.256 16.5685 7.4785 20.1915 12 21.75ZM12 21.75V19.072M12 5.20647V2.29147M17.76 11.73H20.25" stroke="#CDD7E3" stroke-width="0.5" stroke-linecap="round" stroke-linejoin="round"/>
</svg>
