<svg width="24" height="24" viewBox="0 0 24 24" fill="none" xmlns="http://www.w3.org/2000/svg">
<path d="M5.5 5.5C4.65625 5.5 4 6.1875 4 7C4 7.84375 4.65625 8.5 5.5 8.5C6.3125 8.5 7 7.84375 7 7C7 6.1875 6.3125 5.5 5.5 5.5ZM5.5 10.5C4.65625 10.5 4 11.1875 4 12C4 12.8438 4.65625 13.5 5.5 13.5C6.3125 13.5 7 12.8438 7 12C7 11.1875 6.3125 10.5 5.5 10.5ZM5.5 15.5C4.65625 15.5 4 16.1875 4 17C4 17.8438 4.65625 18.5 5.5 18.5C6.3125 18.5 7 17.8438 7 17C7 16.1875 6.3125 15.5 5.5 15.5ZM19.5 16H9.5C9.21875 16 9 16.25 9 16.5V17.5C9 17.7812 9.21875 18 9.5 18H19.5C19.75 18 20 17.7812 20 17.5V16.5C20 16.25 19.75 16 19.5 16ZM19.5 6H9.5C9.21875 6 9 6.25 9 6.5V7.5C9 7.78125 9.21875 8 9.5 8H19.5C19.75 8 20 7.78125 20 7.5V6.5C20 6.25 19.75 6 19.5 6ZM19.5 11H9.5C9.21875 11 9 11.25 9 11.5V12.5C9 12.7812 9.21875 13 9.5 13H19.5C19.75 13 20 12.7812 20 12.5V11.5C20 11.25 19.75 11 19.5 11Z" fill="#777C91"/>
</svg>
